<mxfile host="app.diagrams.net" agent="Mozilla/5.0 (Windows NT 10.0; Win64; x64) AppleWebKit/537.36 (KHTML, like Gecko) Chrome/129.0.0.0 Safari/537.36" version="24.7.17">
  <diagram name="Page-1" id="Z9L5UydWHqt_zFfpka9Z">
    <mxGraphModel dx="2600" dy="870" grid="1" gridSize="10" guides="1" tooltips="1" connect="1" arrows="1" fold="1" page="1" pageScale="1" pageWidth="850" pageHeight="1100" math="0" shadow="0">
      <root>
        <mxCell id="0" />
        <mxCell id="1" parent="0" />
        <mxCell id="iPYOZtERqzUglVW7oKaW-3" value="" style="group" parent="1" vertex="1" connectable="0">
          <mxGeometry x="-260" y="170" width="160" height="60" as="geometry" />
        </mxCell>
        <mxCell id="iPYOZtERqzUglVW7oKaW-1" value="" style="rounded=0;whiteSpace=wrap;html=1;movable=1;resizable=1;rotatable=1;deletable=1;editable=1;locked=0;connectable=1;" parent="iPYOZtERqzUglVW7oKaW-3" vertex="1">
          <mxGeometry width="160" height="60" as="geometry" />
        </mxCell>
        <mxCell id="iPYOZtERqzUglVW7oKaW-2" value="get_user_account_by_handle" style="text;html=1;align=center;verticalAlign=middle;whiteSpace=wrap;rounded=0;movable=1;resizable=1;rotatable=1;deletable=1;editable=1;locked=0;connectable=1;" parent="iPYOZtERqzUglVW7oKaW-3" vertex="1">
          <mxGeometry x="40" y="15" width="80" height="30" as="geometry" />
        </mxCell>
        <mxCell id="iPYOZtERqzUglVW7oKaW-6" value="" style="group" parent="1" vertex="1" connectable="0">
          <mxGeometry x="910" width="120" height="60" as="geometry" />
        </mxCell>
        <mxCell id="iPYOZtERqzUglVW7oKaW-4" value="" style="rounded=0;whiteSpace=wrap;html=1;" parent="iPYOZtERqzUglVW7oKaW-6" vertex="1">
          <mxGeometry width="120" height="60" as="geometry" />
        </mxCell>
        <mxCell id="iPYOZtERqzUglVW7oKaW-5" value="get_user_url_by_id" style="text;html=1;align=center;verticalAlign=middle;whiteSpace=wrap;rounded=0;" parent="iPYOZtERqzUglVW7oKaW-6" vertex="1">
          <mxGeometry x="30" y="15" width="60" height="30" as="geometry" />
        </mxCell>
        <mxCell id="iPYOZtERqzUglVW7oKaW-9" value="" style="group" parent="1" vertex="1" connectable="0">
          <mxGeometry x="510" y="250" width="130" height="60" as="geometry" />
        </mxCell>
        <mxCell id="iPYOZtERqzUglVW7oKaW-7" value="" style="rounded=0;whiteSpace=wrap;html=1;" parent="iPYOZtERqzUglVW7oKaW-9" vertex="1">
          <mxGeometry width="130" height="60" as="geometry" />
        </mxCell>
        <mxCell id="iPYOZtERqzUglVW7oKaW-8" value="get_user_id_by_handle" style="text;html=1;align=center;verticalAlign=middle;whiteSpace=wrap;rounded=0;" parent="iPYOZtERqzUglVW7oKaW-9" vertex="1">
          <mxGeometry x="35" y="15" width="60" height="30" as="geometry" />
        </mxCell>
        <mxCell id="iPYOZtERqzUglVW7oKaW-14" value="" style="group" parent="1" vertex="1" connectable="0">
          <mxGeometry x="490" y="770" width="150" height="60" as="geometry" />
        </mxCell>
        <mxCell id="iPYOZtERqzUglVW7oKaW-10" value="" style="rounded=0;whiteSpace=wrap;html=1;" parent="iPYOZtERqzUglVW7oKaW-14" vertex="1">
          <mxGeometry width="150" height="60" as="geometry" />
        </mxCell>
        <mxCell id="iPYOZtERqzUglVW7oKaW-11" value="get_user_rating_by_handle" style="text;html=1;align=center;verticalAlign=middle;whiteSpace=wrap;rounded=0;" parent="iPYOZtERqzUglVW7oKaW-14" vertex="1">
          <mxGeometry x="45" y="15" width="60" height="30" as="geometry" />
        </mxCell>
        <mxCell id="iPYOZtERqzUglVW7oKaW-17" value="" style="group;fillColor=#fff2cc;strokeColor=#d6b656;" parent="1" vertex="1" connectable="0">
          <mxGeometry x="40" y="390" width="130" height="60" as="geometry" />
        </mxCell>
        <mxCell id="iPYOZtERqzUglVW7oKaW-15" value="" style="rounded=0;whiteSpace=wrap;html=1;" parent="iPYOZtERqzUglVW7oKaW-17" vertex="1">
          <mxGeometry width="130" height="60" as="geometry" />
        </mxCell>
        <mxCell id="iPYOZtERqzUglVW7oKaW-16" value="get_resource_url_by_id" style="text;html=1;align=center;verticalAlign=middle;whiteSpace=wrap;rounded=0;" parent="iPYOZtERqzUglVW7oKaW-17" vertex="1">
          <mxGeometry x="35" y="15" width="60" height="30" as="geometry" />
        </mxCell>
        <mxCell id="iPYOZtERqzUglVW7oKaW-20" value="" style="group" parent="1" vertex="1" connectable="0">
          <mxGeometry x="480" y="440" width="160" height="60" as="geometry" />
        </mxCell>
        <mxCell id="iPYOZtERqzUglVW7oKaW-18" value="" style="rounded=0;whiteSpace=wrap;html=1;" parent="iPYOZtERqzUglVW7oKaW-20" vertex="1">
          <mxGeometry width="160" height="60" as="geometry" />
        </mxCell>
        <mxCell id="iPYOZtERqzUglVW7oKaW-19" value="get_resource_name_by_id" style="text;html=1;align=center;verticalAlign=middle;whiteSpace=wrap;rounded=0;" parent="iPYOZtERqzUglVW7oKaW-20" vertex="1">
          <mxGeometry x="50" y="15" width="60" height="30" as="geometry" />
        </mxCell>
        <mxCell id="iPYOZtERqzUglVW7oKaW-23" value="" style="group" parent="1" vertex="1" connectable="0">
          <mxGeometry x="40" y="510" width="150" height="60" as="geometry" />
        </mxCell>
        <mxCell id="iPYOZtERqzUglVW7oKaW-21" value="" style="rounded=0;whiteSpace=wrap;html=1;" parent="iPYOZtERqzUglVW7oKaW-23" vertex="1">
          <mxGeometry width="150" height="60" as="geometry" />
        </mxCell>
        <mxCell id="iPYOZtERqzUglVW7oKaW-22" value="get_problems_by_handle" style="text;html=1;align=center;verticalAlign=middle;whiteSpace=wrap;rounded=0;" parent="iPYOZtERqzUglVW7oKaW-23" vertex="1">
          <mxGeometry x="45" y="15" width="60" height="30" as="geometry" />
        </mxCell>
        <mxCell id="iPYOZtERqzUglVW7oKaW-27" value="" style="group" parent="1" vertex="1" connectable="0">
          <mxGeometry x="40" y="750" width="140" height="60" as="geometry" />
        </mxCell>
        <mxCell id="iPYOZtERqzUglVW7oKaW-25" value="" style="rounded=0;whiteSpace=wrap;html=1;" parent="iPYOZtERqzUglVW7oKaW-27" vertex="1">
          <mxGeometry width="140" height="60" as="geometry" />
        </mxCell>
        <mxCell id="iPYOZtERqzUglVW7oKaW-26" value="get_coder_id_by_name" style="text;html=1;align=center;verticalAlign=middle;whiteSpace=wrap;rounded=0;" parent="iPYOZtERqzUglVW7oKaW-27" vertex="1">
          <mxGeometry x="40" y="15" width="60" height="30" as="geometry" />
        </mxCell>
        <mxCell id="iPYOZtERqzUglVW7oKaW-30" value="" style="group;fillColor=#ff0000;strokeColor=#b85450;fillStyle=hatch;gradientColor=none;" parent="1" vertex="1" connectable="0">
          <mxGeometry x="-830" y="470" width="120" height="60" as="geometry" />
        </mxCell>
        <mxCell id="iPYOZtERqzUglVW7oKaW-28" value="" style="rounded=0;whiteSpace=wrap;html=1;" parent="iPYOZtERqzUglVW7oKaW-30" vertex="1">
          <mxGeometry width="120" height="60" as="geometry" />
        </mxCell>
        <mxCell id="iPYOZtERqzUglVW7oKaW-29" value="configure" style="text;html=1;align=center;verticalAlign=middle;whiteSpace=wrap;rounded=0;" parent="iPYOZtERqzUglVW7oKaW-30" vertex="1">
          <mxGeometry x="30" y="15" width="60" height="30" as="geometry" />
        </mxCell>
        <mxCell id="iPYOZtERqzUglVW7oKaW-36" value="" style="group" parent="1" vertex="1" connectable="0">
          <mxGeometry x="700" width="120" height="60" as="geometry" />
        </mxCell>
        <mxCell id="iPYOZtERqzUglVW7oKaW-34" value="" style="rounded=0;whiteSpace=wrap;html=1;" parent="iPYOZtERqzUglVW7oKaW-36" vertex="1">
          <mxGeometry width="120" height="60" as="geometry" />
        </mxCell>
        <mxCell id="iPYOZtERqzUglVW7oKaW-35" value="save_to_file" style="text;html=1;align=center;verticalAlign=middle;whiteSpace=wrap;rounded=0;" parent="iPYOZtERqzUglVW7oKaW-36" vertex="1">
          <mxGeometry x="30" y="15" width="60" height="30" as="geometry" />
        </mxCell>
        <mxCell id="iPYOZtERqzUglVW7oKaW-39" value="" style="group" parent="1" vertex="1" connectable="0">
          <mxGeometry x="680" y="600" width="120" height="60" as="geometry" />
        </mxCell>
        <mxCell id="iPYOZtERqzUglVW7oKaW-37" value="" style="rounded=0;whiteSpace=wrap;html=1;" parent="iPYOZtERqzUglVW7oKaW-39" vertex="1">
          <mxGeometry width="120" height="60" as="geometry" />
        </mxCell>
        <mxCell id="iPYOZtERqzUglVW7oKaW-38" value="processing" style="text;html=1;align=center;verticalAlign=middle;whiteSpace=wrap;rounded=0;" parent="iPYOZtERqzUglVW7oKaW-39" vertex="1">
          <mxGeometry x="30" y="15" width="60" height="30" as="geometry" />
        </mxCell>
        <mxCell id="iPYOZtERqzUglVW7oKaW-45" value="" style="group" parent="1" vertex="1" connectable="0">
          <mxGeometry x="-260" y="280" width="120" height="60" as="geometry" />
        </mxCell>
        <mxCell id="iPYOZtERqzUglVW7oKaW-43" value="" style="rounded=0;whiteSpace=wrap;html=1;" parent="iPYOZtERqzUglVW7oKaW-45" vertex="1">
          <mxGeometry width="120" height="60" as="geometry" />
        </mxCell>
        <mxCell id="iPYOZtERqzUglVW7oKaW-44" value="access_user_data" style="text;html=1;align=center;verticalAlign=middle;whiteSpace=wrap;rounded=0;" parent="iPYOZtERqzUglVW7oKaW-45" vertex="1">
          <mxGeometry x="30" y="15" width="60" height="30" as="geometry" />
        </mxCell>
        <mxCell id="iPYOZtERqzUglVW7oKaW-48" value="" style="group" parent="1" vertex="1" connectable="0">
          <mxGeometry x="-260" y="440" width="130" height="60" as="geometry" />
        </mxCell>
        <mxCell id="iPYOZtERqzUglVW7oKaW-46" value="" style="rounded=0;whiteSpace=wrap;html=1;" parent="iPYOZtERqzUglVW7oKaW-48" vertex="1">
          <mxGeometry width="130" height="60" as="geometry" />
        </mxCell>
        <mxCell id="iPYOZtERqzUglVW7oKaW-47" value="access_resource_data" style="text;html=1;align=center;verticalAlign=middle;whiteSpace=wrap;rounded=0;" parent="iPYOZtERqzUglVW7oKaW-48" vertex="1">
          <mxGeometry x="35" y="15" width="60" height="30" as="geometry" />
        </mxCell>
        <mxCell id="iPYOZtERqzUglVW7oKaW-51" value="" style="group" parent="1" vertex="1" connectable="0">
          <mxGeometry x="-260" y="560" width="120" height="60" as="geometry" />
        </mxCell>
        <mxCell id="iPYOZtERqzUglVW7oKaW-49" value="" style="rounded=1;whiteSpace=wrap;html=1;" parent="iPYOZtERqzUglVW7oKaW-51" vertex="1">
          <mxGeometry width="120" height="60" as="geometry" />
        </mxCell>
        <mxCell id="iPYOZtERqzUglVW7oKaW-50" value="access_problem_data" style="text;html=1;align=center;verticalAlign=middle;whiteSpace=wrap;rounded=0;" parent="iPYOZtERqzUglVW7oKaW-51" vertex="1">
          <mxGeometry x="30" y="15" width="60" height="30" as="geometry" />
        </mxCell>
        <mxCell id="iPYOZtERqzUglVW7oKaW-54" value="" style="group" parent="1" vertex="1" connectable="0">
          <mxGeometry x="-260" y="680" width="120" height="60" as="geometry" />
        </mxCell>
        <mxCell id="iPYOZtERqzUglVW7oKaW-52" value="" style="rounded=0;whiteSpace=wrap;html=1;" parent="iPYOZtERqzUglVW7oKaW-54" vertex="1">
          <mxGeometry width="120" height="60" as="geometry" />
        </mxCell>
        <mxCell id="iPYOZtERqzUglVW7oKaW-53" value="access_coder_data" style="text;html=1;align=center;verticalAlign=middle;whiteSpace=wrap;rounded=0;" parent="iPYOZtERqzUglVW7oKaW-54" vertex="1">
          <mxGeometry x="30" y="15" width="60" height="30" as="geometry" />
        </mxCell>
        <mxCell id="iPYOZtERqzUglVW7oKaW-62" style="edgeStyle=orthogonalEdgeStyle;rounded=0;orthogonalLoop=1;jettySize=auto;html=1;exitX=1;exitY=0.5;exitDx=0;exitDy=0;entryX=0;entryY=0.5;entryDx=0;entryDy=0;" parent="1" source="iPYOZtERqzUglVW7oKaW-28" target="iPYOZtERqzUglVW7oKaW-46" edge="1">
          <mxGeometry relative="1" as="geometry" />
        </mxCell>
        <mxCell id="iPYOZtERqzUglVW7oKaW-63" style="edgeStyle=orthogonalEdgeStyle;rounded=0;orthogonalLoop=1;jettySize=auto;html=1;exitX=1;exitY=0.5;exitDx=0;exitDy=0;entryX=0;entryY=0.5;entryDx=0;entryDy=0;" parent="1" source="iPYOZtERqzUglVW7oKaW-28" target="iPYOZtERqzUglVW7oKaW-49" edge="1">
          <mxGeometry relative="1" as="geometry" />
        </mxCell>
        <mxCell id="iPYOZtERqzUglVW7oKaW-64" style="edgeStyle=orthogonalEdgeStyle;rounded=0;orthogonalLoop=1;jettySize=auto;html=1;exitX=1;exitY=0.5;exitDx=0;exitDy=0;entryX=0;entryY=0.5;entryDx=0;entryDy=0;" parent="1" source="iPYOZtERqzUglVW7oKaW-28" target="iPYOZtERqzUglVW7oKaW-52" edge="1">
          <mxGeometry relative="1" as="geometry" />
        </mxCell>
        <mxCell id="iPYOZtERqzUglVW7oKaW-65" style="edgeStyle=orthogonalEdgeStyle;rounded=0;orthogonalLoop=1;jettySize=auto;html=1;exitX=1;exitY=0.5;exitDx=0;exitDy=0;entryX=0;entryY=0.5;entryDx=0;entryDy=0;" parent="1" source="iPYOZtERqzUglVW7oKaW-28" target="iPYOZtERqzUglVW7oKaW-55" edge="1">
          <mxGeometry relative="1" as="geometry" />
        </mxCell>
        <mxCell id="iPYOZtERqzUglVW7oKaW-66" value="" style="group" parent="1" vertex="1" connectable="0">
          <mxGeometry x="-730" y="650" width="120" height="60" as="geometry" />
        </mxCell>
        <mxCell id="iPYOZtERqzUglVW7oKaW-31" value="" style="rounded=0;whiteSpace=wrap;html=1;" parent="iPYOZtERqzUglVW7oKaW-66" vertex="1">
          <mxGeometry width="120" height="60" as="geometry" />
        </mxCell>
        <mxCell id="iPYOZtERqzUglVW7oKaW-32" value="pre_processing" style="text;html=1;align=center;verticalAlign=middle;whiteSpace=wrap;rounded=0;" parent="iPYOZtERqzUglVW7oKaW-66" vertex="1">
          <mxGeometry x="30" y="15" width="60" height="30" as="geometry" />
        </mxCell>
        <mxCell id="iPYOZtERqzUglVW7oKaW-67" style="edgeStyle=orthogonalEdgeStyle;rounded=0;orthogonalLoop=1;jettySize=auto;html=1;exitX=1;exitY=0.5;exitDx=0;exitDy=0;entryX=0;entryY=0.5;entryDx=0;entryDy=0;" parent="1" source="iPYOZtERqzUglVW7oKaW-28" target="iPYOZtERqzUglVW7oKaW-43" edge="1">
          <mxGeometry relative="1" as="geometry" />
        </mxCell>
        <mxCell id="iPYOZtERqzUglVW7oKaW-68" value="" style="group" parent="1" vertex="1" connectable="0">
          <mxGeometry x="-260" y="810" width="140" height="60" as="geometry" />
        </mxCell>
        <mxCell id="iPYOZtERqzUglVW7oKaW-55" value="" style="rounded=0;whiteSpace=wrap;html=1;" parent="iPYOZtERqzUglVW7oKaW-68" vertex="1">
          <mxGeometry width="140" height="60" as="geometry" />
        </mxCell>
        <mxCell id="iPYOZtERqzUglVW7oKaW-56" value="no_of_problems_solved" style="text;html=1;align=center;verticalAlign=middle;whiteSpace=wrap;rounded=0;" parent="iPYOZtERqzUglVW7oKaW-68" vertex="1">
          <mxGeometry x="40" y="15" width="60" height="30" as="geometry" />
        </mxCell>
        <mxCell id="iPYOZtERqzUglVW7oKaW-69" style="edgeStyle=orthogonalEdgeStyle;rounded=0;orthogonalLoop=1;jettySize=auto;html=1;exitX=1;exitY=0.5;exitDx=0;exitDy=0;entryX=0;entryY=0.75;entryDx=0;entryDy=0;" parent="1" source="iPYOZtERqzUglVW7oKaW-31" target="iPYOZtERqzUglVW7oKaW-43" edge="1">
          <mxGeometry relative="1" as="geometry" />
        </mxCell>
        <mxCell id="iPYOZtERqzUglVW7oKaW-70" style="edgeStyle=orthogonalEdgeStyle;rounded=0;orthogonalLoop=1;jettySize=auto;html=1;exitX=1;exitY=0.5;exitDx=0;exitDy=0;entryX=0;entryY=0.75;entryDx=0;entryDy=0;" parent="1" source="iPYOZtERqzUglVW7oKaW-31" target="iPYOZtERqzUglVW7oKaW-46" edge="1">
          <mxGeometry relative="1" as="geometry" />
        </mxCell>
        <mxCell id="iPYOZtERqzUglVW7oKaW-71" style="edgeStyle=orthogonalEdgeStyle;rounded=0;orthogonalLoop=1;jettySize=auto;html=1;exitX=1;exitY=0.5;exitDx=0;exitDy=0;entryX=0;entryY=0.75;entryDx=0;entryDy=0;" parent="1" source="iPYOZtERqzUglVW7oKaW-31" target="iPYOZtERqzUglVW7oKaW-49" edge="1">
          <mxGeometry relative="1" as="geometry" />
        </mxCell>
        <mxCell id="iPYOZtERqzUglVW7oKaW-72" style="edgeStyle=orthogonalEdgeStyle;rounded=0;orthogonalLoop=1;jettySize=auto;html=1;exitX=1;exitY=0.5;exitDx=0;exitDy=0;entryX=0;entryY=0.75;entryDx=0;entryDy=0;" parent="1" source="iPYOZtERqzUglVW7oKaW-31" target="iPYOZtERqzUglVW7oKaW-52" edge="1">
          <mxGeometry relative="1" as="geometry" />
        </mxCell>
        <mxCell id="iPYOZtERqzUglVW7oKaW-73" style="edgeStyle=orthogonalEdgeStyle;rounded=0;orthogonalLoop=1;jettySize=auto;html=1;exitX=1;exitY=0.5;exitDx=0;exitDy=0;entryX=0;entryY=0.75;entryDx=0;entryDy=0;" parent="1" source="iPYOZtERqzUglVW7oKaW-31" target="iPYOZtERqzUglVW7oKaW-55" edge="1">
          <mxGeometry relative="1" as="geometry" />
        </mxCell>
        <mxCell id="wDggStJX61Mtihf_zR51-29" style="edgeStyle=orthogonalEdgeStyle;rounded=0;orthogonalLoop=1;jettySize=auto;html=1;exitX=1;exitY=0.5;exitDx=0;exitDy=0;entryX=0;entryY=0.5;entryDx=0;entryDy=0;" edge="1" parent="1" source="iPYOZtERqzUglVW7oKaW-52" target="iPYOZtERqzUglVW7oKaW-37">
          <mxGeometry relative="1" as="geometry" />
        </mxCell>
        <mxCell id="wDggStJX61Mtihf_zR51-31" style="edgeStyle=orthogonalEdgeStyle;rounded=0;orthogonalLoop=1;jettySize=auto;html=1;exitX=1;exitY=0.5;exitDx=0;exitDy=0;entryX=0;entryY=0.5;entryDx=0;entryDy=0;" edge="1" parent="1" source="iPYOZtERqzUglVW7oKaW-43" target="iPYOZtERqzUglVW7oKaW-37">
          <mxGeometry relative="1" as="geometry" />
        </mxCell>
        <mxCell id="wDggStJX61Mtihf_zR51-34" style="edgeStyle=orthogonalEdgeStyle;rounded=0;orthogonalLoop=1;jettySize=auto;html=1;exitX=0;exitY=0.5;exitDx=0;exitDy=0;entryX=0;entryY=0.25;entryDx=0;entryDy=0;" edge="1" parent="1" source="iPYOZtERqzUglVW7oKaW-1" target="iPYOZtERqzUglVW7oKaW-43">
          <mxGeometry relative="1" as="geometry" />
        </mxCell>
        <mxCell id="wDggStJX61Mtihf_zR51-35" style="edgeStyle=orthogonalEdgeStyle;rounded=0;orthogonalLoop=1;jettySize=auto;html=1;exitX=0;exitY=0.5;exitDx=0;exitDy=0;entryX=0;entryY=0.25;entryDx=0;entryDy=0;" edge="1" parent="1" source="iPYOZtERqzUglVW7oKaW-25" target="iPYOZtERqzUglVW7oKaW-52">
          <mxGeometry relative="1" as="geometry" />
        </mxCell>
        <mxCell id="wDggStJX61Mtihf_zR51-36" style="edgeStyle=orthogonalEdgeStyle;rounded=0;orthogonalLoop=1;jettySize=auto;html=1;exitX=0;exitY=0.5;exitDx=0;exitDy=0;entryX=0;entryY=0.25;entryDx=0;entryDy=0;" edge="1" parent="1" source="iPYOZtERqzUglVW7oKaW-15" target="iPYOZtERqzUglVW7oKaW-46">
          <mxGeometry relative="1" as="geometry" />
        </mxCell>
        <mxCell id="wDggStJX61Mtihf_zR51-14" style="edgeStyle=orthogonalEdgeStyle;rounded=0;orthogonalLoop=1;jettySize=auto;html=1;exitX=1;exitY=0.5;exitDx=0;exitDy=0;entryX=0;entryY=0.5;entryDx=0;entryDy=0;" edge="1" parent="1" source="iPYOZtERqzUglVW7oKaW-18" target="iPYOZtERqzUglVW7oKaW-37">
          <mxGeometry relative="1" as="geometry" />
        </mxCell>
        <mxCell id="wDggStJX61Mtihf_zR51-15" style="edgeStyle=orthogonalEdgeStyle;rounded=0;orthogonalLoop=1;jettySize=auto;html=1;exitX=1;exitY=0.5;exitDx=0;exitDy=0;entryX=0;entryY=0.5;entryDx=0;entryDy=0;" edge="1" parent="1" source="iPYOZtERqzUglVW7oKaW-10" target="iPYOZtERqzUglVW7oKaW-37">
          <mxGeometry relative="1" as="geometry" />
        </mxCell>
        <mxCell id="wDggStJX61Mtihf_zR51-39" value="" style="group" vertex="1" connectable="0" parent="1">
          <mxGeometry x="40" y="860" width="120" height="60" as="geometry" />
        </mxCell>
        <mxCell id="wDggStJX61Mtihf_zR51-37" value="" style="rounded=0;whiteSpace=wrap;html=1;" vertex="1" parent="wDggStJX61Mtihf_zR51-39">
          <mxGeometry width="120" height="60" as="geometry" />
        </mxCell>
        <mxCell id="wDggStJX61Mtihf_zR51-38" value="get_problem_stats" style="text;html=1;align=center;verticalAlign=middle;whiteSpace=wrap;rounded=0;" vertex="1" parent="wDggStJX61Mtihf_zR51-39">
          <mxGeometry x="30" y="15" width="60" height="30" as="geometry" />
        </mxCell>
        <mxCell id="wDggStJX61Mtihf_zR51-43" style="edgeStyle=orthogonalEdgeStyle;rounded=0;orthogonalLoop=1;jettySize=auto;html=1;exitX=0;exitY=0.5;exitDx=0;exitDy=0;entryX=1;entryY=0.5;entryDx=0;entryDy=0;" edge="1" parent="1" source="iPYOZtERqzUglVW7oKaW-7" target="wDggStJX61Mtihf_zR51-37">
          <mxGeometry relative="1" as="geometry" />
        </mxCell>
        <mxCell id="wDggStJX61Mtihf_zR51-44" style="edgeStyle=orthogonalEdgeStyle;rounded=0;orthogonalLoop=1;jettySize=auto;html=1;exitX=0;exitY=0.5;exitDx=0;exitDy=0;entryX=0;entryY=0.25;entryDx=0;entryDy=0;" edge="1" parent="1" source="wDggStJX61Mtihf_zR51-37" target="iPYOZtERqzUglVW7oKaW-55">
          <mxGeometry relative="1" as="geometry" />
        </mxCell>
        <mxCell id="wDggStJX61Mtihf_zR51-45" style="edgeStyle=orthogonalEdgeStyle;rounded=0;orthogonalLoop=1;jettySize=auto;html=1;exitX=1;exitY=0.5;exitDx=0;exitDy=0;entryX=0;entryY=0.5;entryDx=0;entryDy=0;" edge="1" parent="1" source="iPYOZtERqzUglVW7oKaW-7" target="iPYOZtERqzUglVW7oKaW-37">
          <mxGeometry relative="1" as="geometry" />
        </mxCell>
        <mxCell id="wDggStJX61Mtihf_zR51-46" style="edgeStyle=orthogonalEdgeStyle;rounded=0;orthogonalLoop=1;jettySize=auto;html=1;exitX=0;exitY=0.5;exitDx=0;exitDy=0;entryX=0;entryY=0.25;entryDx=0;entryDy=0;" edge="1" parent="1" source="iPYOZtERqzUglVW7oKaW-21" target="iPYOZtERqzUglVW7oKaW-49">
          <mxGeometry relative="1" as="geometry" />
        </mxCell>
        <mxCell id="wDggStJX61Mtihf_zR51-49" value="" style="group" vertex="1" connectable="0" parent="1">
          <mxGeometry x="1020" y="600" width="120" height="60" as="geometry" />
        </mxCell>
        <mxCell id="wDggStJX61Mtihf_zR51-47" value="" style="rounded=0;whiteSpace=wrap;html=1;" vertex="1" parent="wDggStJX61Mtihf_zR51-49">
          <mxGeometry width="120" height="60" as="geometry" />
        </mxCell>
        <mxCell id="wDggStJX61Mtihf_zR51-48" value="main" style="text;html=1;align=center;verticalAlign=middle;whiteSpace=wrap;rounded=0;" vertex="1" parent="wDggStJX61Mtihf_zR51-49">
          <mxGeometry x="30" y="15" width="60" height="30" as="geometry" />
        </mxCell>
        <mxCell id="wDggStJX61Mtihf_zR51-50" style="edgeStyle=orthogonalEdgeStyle;rounded=0;orthogonalLoop=1;jettySize=auto;html=1;exitX=1;exitY=0.5;exitDx=0;exitDy=0;entryX=0;entryY=0.5;entryDx=0;entryDy=0;" edge="1" parent="1" source="iPYOZtERqzUglVW7oKaW-37" target="wDggStJX61Mtihf_zR51-47">
          <mxGeometry relative="1" as="geometry" />
        </mxCell>
      </root>
    </mxGraphModel>
  </diagram>
</mxfile>
